<svg width="601" height="426" xmlns="http://www.w3.org/2000/svg" xmlns:xlink="http://www.w3.org/1999/xlink" overflow="hidden"><defs><clipPath id="clip0"><path d="M156 119 757 119 757 545 156 545Z" fill-rule="evenodd" clip-rule="evenodd"/></clipPath><clipPath id="clip1"><path d="M156 119 756 119 756 544 156 544Z" fill-rule="evenodd" clip-rule="evenodd"/></clipPath><clipPath id="clip2"><path d="M156 119 757 119 757 544 156 544Z" fill-rule="evenodd" clip-rule="evenodd"/></clipPath></defs><g clip-path="url(#clip0)" transform="translate(-156 -119)"><g clip-path="url(#clip1)"><g clip-path="url(#clip2)"><path d="M544.011 405.223 544.011 383.027 544.011 249.795 544.011 116.564C544.011 104.37 534.03 94.3678 521.815 94.3678L77.7279 94.3678C65.5131 94.3678 55.4828 104.321 55.4828 116.564L55.4828 249.795 55.4828 383.027 55.4828 405.223 0 471.839C0 490.193 14.905 505.119 33.2798 505.119L566.207 505.119C584.56 505.119 599.487 490.186 599.487 471.839L544.011 405.223ZM344.191 494.063 255.38 494.063C252.31 494.063 249.824 491.598 249.824 488.507 249.824 485.416 252.31 482.951 255.38 482.951L344.191 482.951C347.261 482.951 349.747 485.416 349.747 488.507 349.691 491.598 347.254 494.063 344.191 494.063ZM208.22 471.867 225.162 451.532 374.303 451.532 391.273 471.867 208.22 471.867ZM512.761 365.959C512.761 376.67 504.037 385.338 493.382 385.338L106.105 385.338C95.4706 385.338 86.7467 376.593 86.7467 365.959L86.7467 133.681C86.7467 122.97 95.4706 114.302 106.105 114.302L493.382 114.302C504.037 114.302 512.761 123.026 512.761 133.681 512.761 133.681 512.761 365.959 512.761 365.959Z" stroke="#D6E7E5" stroke-width="1.32898" fill="none" transform="matrix(1.00086 0 -0 1 156 31.6368)"/><path d="M246.958 350.822C247.485 351.124 247.99 351.398 248.517 351.7 248.138 351.25 247.815 350.871 247.59 350.365 247.281 350.401 247.084 350.576 246.958 350.822Z" stroke="#D6E7E5" stroke-width="1.32898" fill="none" transform="matrix(1.00086 0 -0 1 156 31.6368)"/><path d="M233.935 178.909C234.062 178.909 234.139 178.909 234.265 178.909 234.343 178.86 234.413 178.761 234.469 178.705 234.307 178.804 234.16 178.754 233.935 178.909Z" stroke="#D6E7E5" stroke-width="1.32898" fill="none" transform="matrix(1.00086 0 -0 1 156 31.6368)"/><path d="M238.03 175.762C237.827 175.91 237.602 176.036 237.426 176.191 237.475 176.219 237.503 176.219 237.524 176.219 237.728 176.092 237.904 175.917 238.03 175.762L238.03 175.762Z" stroke="#D6E7E5" stroke-width="1.32898" fill="none" transform="matrix(1.00086 0 -0 1 156 31.6368)"/><path d="M235.164 177.975C235.214 177.975 235.34 177.975 235.417 177.975 236.07 177.448 236.675 176.844 237.356 176.394 236.499 176.844 235.417 177.722 235.164 177.975Z" stroke="#D6E7E5" stroke-width="1.32898" fill="none" transform="matrix(1.00086 0 -0 1 156 31.6368)"/><path d="M233.654 179.134C233.429 179.337 233.177 179.513 232.973 179.689 233.099 179.639 233.247 179.639 233.422 179.59 233.521 179.492 233.647 179.387 233.774 179.288 233.76 179.281 233.781 179.106 233.654 179.134Z" stroke="#D6E7E5" stroke-width="1.32898" fill="none" transform="matrix(1.00086 0 -0 1 156 31.6368)"/><path d="M196.602 241.5C196.652 241.5 196.68 241.704 196.701 241.704 196.75 241.402 196.729 241.149 196.778 240.875 196.778 241.072 196.652 241.275 196.602 241.5Z" stroke="#D6E7E5" stroke-width="1.32898" fill="none" transform="matrix(1.00086 0 -0 1 156 31.6368)"/><path d="M229.833 182.379C229.58 182.604 229.433 182.906 229.18 183.081 230.212 182.154 231.315 181.374 232.348 180.468 231.498 181.016 230.613 181.669 229.833 182.379Z" stroke="#D6E7E5" stroke-width="1.32898" fill="none" transform="matrix(1.00086 0 -0 1 156 31.6368)"/><path d="M196.806 240.819C199.644 225.984 205.706 211.76 214.528 199.44 205.881 211.613 199.693 225.591 196.806 240.819Z" stroke="#D6E7E5" stroke-width="1.32898" fill="none" transform="matrix(1.00086 0 -0 1 156 31.6368)"/><path d="M237.531 176.191 237.356 176.366 237.581 176.191Z" stroke="#D6E7E5" stroke-width="1.32898" fill="none" transform="matrix(1.00086 0 -0 1 156 31.6368)"/><path d="M214.654 199.272C214.626 199.321 214.605 199.398 214.556 199.475 214.781 199.145 215.062 198.949 215.258 198.646 215.055 198.843 214.83 199.04 214.654 199.272Z" stroke="#D6E7E5" stroke-width="1.32898" fill="none" transform="matrix(1.00086 0 -0 1 156 31.6368)"/><path d="M215.258 198.639C219.381 192.957 224.08 187.78 229.236 183.13 224.031 187.808 219.353 192.957 215.258 198.639Z" stroke="#D6E7E5" stroke-width="1.32898" fill="none" transform="matrix(1.00086 0 -0 1 156 31.6368)"/><path d="M399.112 227.171C398.887 227.171 398.838 227.396 398.782 227.6 399.435 229.587 400.341 231.47 400.896 233.507 400.594 232.376 400.419 231.196 400.145 230.065 399.014 229.384 399.667 228.204 399.112 227.171Z" stroke="#D6E7E5" stroke-width="1.32898" fill="none" transform="matrix(1.00086 0 -0 1 156 31.6368)"/><path d="M384.586 199.321C382.802 196.806 380.941 194.369 378.932 192.03 380.941 194.369 382.823 196.827 384.586 199.321Z" stroke="#D6E7E5" stroke-width="1.32898" fill="none" transform="matrix(1.00086 0 -0 1 156 31.6368)"/><path d="M396.022 219.704C394.259 215.532 392.201 211.613 389.939 207.686 392.355 211.458 394.266 215.532 396.022 219.704Z" stroke="#D6E7E5" stroke-width="1.32898" fill="none" transform="matrix(1.00086 0 -0 1 156 31.6368)"/><path d="M402.308 239.639C401.859 237.581 401.43 235.516 400.903 233.507 401.43 235.516 401.859 237.581 402.308 239.639Z" stroke="#D6E7E5" stroke-width="1.32898" fill="none" transform="matrix(1.00086 0 -0 1 156 31.6368)"/><path d="M394.266 222.851C395.298 224.909 397.757 225.991 398.487 227.958 398.74 227.958 398.761 227.733 398.817 227.557 398.262 225.794 397.637 224.01 396.984 222.303 395.242 220.737 392.503 219.325 394.266 222.851Z" stroke="#D6E7E5" stroke-width="1.32898" fill="none" transform="matrix(1.00086 0 -0 1 156 31.6368)"/><path d="M235.389 177.975C235.087 178.228 234.785 178.502 234.462 178.705 235.192 178.256 235.768 178.101 236.822 177.975 236.401 177.778 235.846 177.926 235.389 177.975Z" stroke="#D6E7E5" stroke-width="1.32898" fill="none" transform="matrix(1.00086 0 -0 1 156 31.6368)"/><path d="M259.25 172.32C259.299 172.32 259.503 172.32 259.58 172.32L259.58 172.32C259.425 172.32 259.348 172.32 259.25 172.32Z" stroke="#D6E7E5" stroke-width="1.32898" fill="none" transform="matrix(1.00086 0 -0 1 156 31.6368)"/><path d="M392.727 245.272C391.245 242.406 390.515 240.446 388.506 237.756 387.024 235.768 384.959 234.188 384.383 231.673 383.456 227.473 376.537 224.909 376.34 220.309 376.291 219.627 374.577 216.389 374.732 216.235 375.181 215.883 375.034 214.177 375.083 213.643 375.181 211.908 375.589 210.552 375.083 208.817 371.36 209.822 368.249 208.29 364.399 207.939 364.526 207.89 364.673 207.792 364.73 207.686 363.648 206.703 362.868 205.98 361.534 205.221 363.016 203.739 361.534 204.392 361.33 203.437 361.028 202.13 364.47 202.734 365.102 202.482 365.025 202.334 364.596 202.081 364.596 201.955 363.212 201.702 363.416 203.135 361.934 202.053 360.775 201.245 360.578 201.702 359.497 201.955 359.644 202.306 359.7 202.482 359.644 202.833 359.644 202.833 357.811 201.498 357.987 202.482 359.117 203.563 359.693 204.617 361.028 205.699 360.297 206.127 359.546 205.671 358.914 205.095 358.963 205.425 359.363 207.054 359.595 207.209 358.036 207.061 357.13 206.331 357.783 204.996 356.603 204.898 354.109 202.383 353.863 201.203 353.484 199.068 350.548 198.717 350.267 197.382 349.761 197.333 343.629 193.112 343.833 194.369 344.135 196.307 347.303 198.998 349.291 199.173 349.593 200.733 352.634 200.381 352.683 202.116 349.789 201.386 350.92 201.112 351.25 203.219 351.201 202.945 349.593 205.481 349.368 204.174 352.381 204.505 342.709 196.912 343.11 197.79 340.974 195.528 340.595 194.699 337.778 196.181 336.374 196.862 331.822 194.474 333.051 197.565 332.953 197.768 326.617 200.48 329.378 201.688 328.549 202.868 327.242 203.851 326.062 204.301 324.629 203.774 322.066 205.762 321.258 204.476 320.204 202.868 319.6 203.444 317.886 203.346 316.18 203.198 317.662 197.516 317.662 196.708 317.662 195.626 316.734 194.144 318.996 194.348 320.907 194.495 322.719 194.952 324.65 195.099 326.814 194.797 327.615 195.626 327.467 192.613 327.439 192.662 327.418 192.662 327.39 192.662 328.675 190.548 322.817 189.944 322.817 188.813 322.817 188.061 326.238 188.764 326.61 188.665 326.61 188.237 326.385 187.984 326.357 187.534 329.076 187.787 329.448 186.755 331.787 186.228 333.726 185.8 333.445 183.713 335.784 183.917 336.486 183.966 338.951 184.121 338.375 183.088 336.971 180.728 336.992 180.728 339.506 179.745 339.605 180.447 340.012 180.728 340.131 181.03 340.054 181.03 339.907 181.508 339.78 181.957 340.258 182.056 340.56 182.231 340.462 182.835 340.412 182.386 339.935 182.561 339.633 182.435 339.534 182.962 339.485 183.439 339.584 183.116 340.869 183.264 342.351 183.166 343.657 183.369 343.454 184.851 348.286 183.166 349.417 183.594 349.368 183.72 349.319 183.868 349.319 183.924 349.796 183.924 350.274 183.973 350.78 183.973 350.379 181.36 355.107 180.328 355.107 181.03 355.107 180.426 353.049 179.646 353.596 179.373 355.381 178.445 357.495 179.878 359.405 179.099 358.703 178.319 349.53 178.572 350.906 176.858 350.127 176.605 350.225 176.106 349.874 175.573 350.176 175.622 353.948 174.238 353.899 174.09 353.168 172.278 350.225 173.866 349.825 174.364 350.127 175.221 345.954 174.842 346.151 176.127 346.376 177.483 347.984 177.083 348.335 178.312 348.385 178.537 344.262 180.222 346.853 180.728 346.903 181.712 343.763 182.491 343.082 182.435 342.506 182.337 341.22 179.92 340.918 179.471 340.11 178.312 339.787 177.434 338.404 178.263 337.954 178.537 334.077 179.548 333.929 178.115 333.88 177.715 334.554 178.143 334.505 177.511 333.978 177.462 333.978 177.462 333.501 177.539 333.627 177.315 333.831 177.139 334.056 177.012 331.337 175.13 336.57 174.098 337.75 174.245 337.322 174.168 337.195 174.119 336.844 174.041 337.624 174.013 343.707 171.527 343.91 170.902 343.053 170.93 342.779 171.077 341.923 171.028 342.07 170.951 342.449 170.902 342.527 170.88 342.379 170.852 342 170.803 342 170.803 342.098 170.452 344.816 170.705 344.866 170.705 344.613 170.656 344.613 170.656 344.339 170.656 344.788 170.452 345.266 170.403 345.772 170.508 345.568 170.41 345.624 170.41 345.421 170.361 346.706 169.932 348.237 170.361 349.572 170.157 348.616 169.981 351.911 169.427 351.63 170.361 352.985 170.508 354.397 170.965 355.83 171.695 339.591 161.363 320.338 155.357 299.673 155.357 276.522 155.357 255.302 163.126 237.96 175.769 237.988 175.917 237.96 175.994 237.932 176.071 238.136 176.071 238.234 176.17 238.157 176.521 239.463 176.191 241.598 176.998 241.374 176.998 242.603 176.921 243.888 174.961 245.574 175.537 245.476 175.488 244.043 176.366 243.937 176.668 243.333 177.954 244.036 177.195 244.97 177.898 244.52 177.996 243.663 177.898 243.263 178.228 243.34 178.178 243.488 178.502 243.488 178.502 242.28 179.028 235.143 179.309 234.813 179.007 234.764 178.958 234.462 178.958 234.209 179.007 234.034 179.155 233.879 179.281 233.703 179.436 233.731 179.513 233.851 179.485 233.83 179.661 233.731 179.71 233.528 179.71 233.352 179.759 233.001 180.061 232.671 180.286 232.32 180.588 233.626 179.808 235.038 179.232 236.696 179.808 237.201 180.012 238.655 179.857 239.463 179.204 241.648 179.302 245.195 179.731 246.473 179.408 246.269 179.534 246.171 179.611 246.726 179.534 247.632 178.853 249.065 179.007 249.444 178.48 249.142 178.53 248.939 178.579 248.693 178.628 248.967 178.48 249.198 178.375 249.444 178.2 249.718 177.947 248.187 177.848 248.44 177.673 249.423 176.991 252.914 176.893 252.113 177.497 251.734 177.624 251.383 177.771 251.011 177.876 251.088 178.08 251.868 177.876 252.141 178.024 250.982 178.354 252.394 178.073 251.615 178.705 251.467 178.705 254.53 177.975 253.926 178.452 253.195 178.424 252.872 178.705 253.019 179.232 253.876 180.012 256.412 177.75 257.044 177.595 257.016 177.595 251.839 177.546 252.472 177.041 253.202 177.392 253.827 177.315 254.333 176.893 254.157 176.795 252.57 176.746 252.57 176.746 252.219 176.064 254.509 175.818 254.881 175.615 254.277 175.818 253.146 175.713 252.493 176.043 252.591 176.043 252.717 176.043 252.844 176.015 252.317 176.366 251.762 176.521 251.137 176.465 252.998 175.179 253.926 175.179 256.44 175.081 256.04 175.285 255.632 175.383 255.211 175.53 256.419 175.278 257.501 175.278 258.681 175.327 258.231 175.425 256.194 175.952 256.848 175.952 255.513 176.507 261.174 174.617 261.547 175.551 261.575 175.65 261.294 176.106 261.167 176.106 263.584 176.106 265.592 176.809 267.882 176.914 267.854 176.963 267.854 177.012 267.805 177.09 268.079 177.012 268.332 177.118 268.536 177.343 268.262 177.371 268.03 177.343 267.833 177.49 268.107 177.441 268.36 177.462 268.613 177.588 268.283 177.715 268.163 177.715 267.91 177.862 268.114 177.961 270.903 178.895 270.875 178.993 270.699 180.279 268.613 179.646 267.608 179.52 267.482 179.794 267.306 179.569 267.159 179.949 267.714 179.899 267.939 180.602 268.69 180.503 268.114 182.386 268.184 181.283 266 181.683 266 181.634 268.416 182.814 267.131 183.144 265.522 183.496 263.584 182.316 262.607 181.81 262.207 181.585 257.908 182.112 258.084 181.859 259.011 180.602 261.504 181.03 262.811 180.398 261.778 180.019 265.529 179.394 264.272 178.488 264.244 179.295 262.235 178.761 262.263 178.712 262.79 178.361 263.345 178.235 263.949 178.284 263.619 178.136 262.137 178.059 262.116 178.108 262.368 178.01 262.621 177.961 262.867 177.905 262.692 177.701 262.488 177.602 262.312 177.602 262.34 177.602 262.361 177.574 262.389 177.574 261.764 177.223 259.376 177.848 259.875 177.448 259.524 177.448 258.892 177.476 258.189 177.497 258.695 177.546 259.271 177.799 259.77 177.799 258.814 178.607 256.876 179.534 254.867 180.11 255.295 180.061 255.12 180.237 255.169 180.384 254.79 180.384 254.691 180.258 254.839 180.159 254.487 180.237 254.157 180.335 253.806 180.433 253.806 180.532 253.834 180.581 253.806 180.686 254.136 180.56 255.541 180.735 255.689 181.164 255.717 181.262 255.513 181.388 255.59 181.438 255.892 181.641 256.546 181.515 256.623 181.712 255.162 182.161 252.753 182.365 251.32 182.442 250.968 182.442 251.242 182.295 251.467 182.091 251.039 182.042 250.414 182.14 250.161 182.14 250.638 181.712 251.973 181.009 252.949 180.581 251.846 180.728 250.786 180.728 249.936 180.454 249.838 180.932 250.919 180.834 251.769 180.932 250.561 181.964 247.47 182.316 245.609 182.161 245.757 182.21 245.939 182.309 246.059 182.414 244.45 183.875 240.58 185.055 238.564 186.383 240.123 186.13 239.969 186.762 238.943 187.815 242.638 187.668 242.287 189.824 245.279 189.726 246.283 190.407 244.801 191.334 244.703 191.889 245.082 191.812 245.707 191.84 245.434 192.191 245.707 192.29 245.813 192.444 246.614 192.395 248.075 190.815 246.41 190.183 249.226 189.024 252.774 187.619 250.182 187.619 250.104 185.757 253.954 184.929 252.394 181.536 257.473 183.994 258.955 184.676 263.352 185.954 264.434 183.945 263.752 185.125 264.209 185.28 264.785 185.505 264.56 185.329 264.335 185.231 264.181 184.978 265.487 183.215 268.304 186.987 266.063 187.717 266.414 187.942 266.716 188.244 267.622 188.244L267.594 188.293C266.843 189.522 270.587 189.171 270.256 189.578 269.73 190.105 267.292 190.309 266.309 190.611 266.386 191.138 270.685 190.035 271.085 189.909 272.392 194.355 259.194 193.877 256.482 196.069 256.812 196.041 263.443 194.509 262.916 195.493 262.467 196.272 261.231 196.069 260.528 196.497 260.928 196.497 261.336 196.624 261.561 196.624 259.201 199.517 264.504 199.215 264.251 199.714 263.822 200.543 259.271 201.273 258.245 201.828 256.56 202.706 258.323 199.869 260.584 199.77 259.98 199.819 259.854 199.644 260.184 199.215 258.498 199.293 255.682 201.224 254.326 200.901 252.893 200.599 248.594 204.195 250.954 204.146 249.493 204.673 247.337 204.575 245.729 205.277 246.059 205.277 246.958 205.024 247.19 205.277 246.283 205.551 242.315 206.935 242.54 207.567 241.837 207.995 241.556 210.285 240.151 210.285 240.229 210.285 240.706 208.276 240.756 208.122 240.453 208.424 239.245 210.482 239.351 210.812 239.428 210.812 239.554 210.812 239.653 210.812 239.477 211.318 239.098 211.641 238.55 211.795 238.55 212.097 238.726 212.175 238.901 212.224 238.473 212.779 237.37 212.554 238.122 213.383 237.166 214.113 235.937 214.261 234.954 214.942 234.982 214.942 234.982 214.991 235.003 215.019 230.978 216.754 227.389 218.489 226.855 223.287 226.729 224.495 225.296 229.875 223.483 229.644 221.875 229.419 224.944 221.678 224.741 220.969 224.713 220.92 220.217 220.189 220.442 219.74 219.761 219.887 219.058 219.74 218.307 219.992 218.56 220.196 218.51 220.196 218.812 220.042 218.335 220.772 217.759 221.222 217.956 221.622 216.621 222.198 215.42 219.536 213.629 220.491 210.988 221.952 209.028 223.153 207.497 225.872 207.469 225.872 207.448 225.872 207.419 225.872 207.019 226.778 199.173 239.821 202.791 240.601 207.714 241.683 207.946 234.722 213.299 235.698 212.617 237.082 211.437 238.114 210.784 239.47 210.356 240.376 209.955 240.854 209.499 241.353 208.895 242.385 203.437 246.88 208.164 247.112 213.896 247.492 209.646 252.872 208.494 255.857 207.49 258.47 205.376 266.99 210.306 264.883 212.666 263.85 212.723 267.475 213.074 268.753 212.926 269.006 211.163 270.587 211.163 270.565 211.065 269.786 211.943 266.969 210.861 266.618 208.677 265.866 208.473 271.064 207.419 270.565 205.305 269.737 206.338 261.645 204.757 261.111 204.582 261.336 204.455 261.666 204.455 261.863 204.329 261.814 204.202 261.764 204.055 261.715 203.655 260.135 205.059 258.421 204.933 256.714 204.835 255.183 204.582 253.926 205.01 252.338 203.605 251.889 202.271 250.954 201.54 249.142 201.266 248.461 201.59 245.068 200.887 244.921 200.381 242.961 199.482 245.448 198.625 245.251 197.642 244.977 197.319 242.181 196.567 241.83 195.486 247.864 194.706 253.975 194.706 260.331 194.706 298.563 215.146 331.948 245.658 350.274 245.054 349.396 245.532 348.413 245.054 347.38 244.401 345.947 243.27 345.772 243.27 343.735 243.27 339.865 242.996 337.448 241.437 333.627 239.751 331.365 240.004 326.561 239.575 323.751 238.648 321.138 238.269 318.448 237.159 315.906 235.951 313.117 232.558 311.178 229.566 310.799 225.696 310.118 225.092 306.774 222.732 304.189 220.744 302.075 218.735 299.617 217.148 297.355 216.34 296.224 214.76 296.175 214.31 294.363 213.882 292.656 215.518 291.947 215.49 290.443 213.179 289.186 213.882 288.884 213.931 286.37 213.959 284.206 216.895 281.867 216.874 279.683 216.27 279.479 216.094 279.156 216.347 278.678 215.897 276.592 213.207 273.094 215.897 271.963 215.371 269.126 218.89 267.159 221.025 266.204 221.503 265.951 222.029 264.497 222.634 265.347 222.964 265.726 222.907 266 222.458 266.379 222.458 267.082 222.029 270.404 223.589 270.327 224.242 270.277 221.678 266.73 225.197 266.506 224.867 265.88 224.165 266.154 224.066 265.522 225.324 265.473 226.834 266.576 227.557 267.405 228.112 268.009 230.374 267.735 231.154 267.96 232.081 268.339 233.689 267.433 235.052 267.152 235.579 269.54 240.756 270.116 242.188 272.279 243.347 273.916 248.25 274.394 250.104 274.337 252.268 274.19 255.913 279.444 254.909 280.821 253.378 282.829 255.562 285.372 257.522 285.147 259.46 284.944 257.669 281.474 261.469 283.033 262.902 283.609 263.429 283.56 263.808 285.197 265.571 285.049 267.833 284.368 269.891 284.944 271.928 285.52 273.157 286.805 275.349 287.283 279.999 288.287 275.553 296.835 274.471 298.893 273.642 300.453 276.03 305.756 275.7 308.095 274.668 312.092 274.092 313.496 270.594 315.709 269.638 316.285 267.854 318.224 268.079 319.53 268.409 320.661 268.76 321.792 269.133 322.923 268.479 323.702 268.177 324.531 268.177 325.536L268.177 325.536C267.826 328.099 266.871 330.34 266.393 332.953 266.063 334.66 260.69 335.517 260.486 334.913 261.519 337.603 265.29 336.472 263.499 340.518 262.874 341.951 260.683 342.225 259.376 342.576 257.817 342.927 259.453 344.69 259.404 345.519 260.107 347.177 257.641 346.348 256.637 346.65 254.754 347.177 259.475 349.291 259.172 348.659 259.65 349.691 258.042 349.164 257.711 349.235 258.161 350.218 259.622 352.627 257.789 353.505 254.972 355.212 259.924 356.195 260.402 357.579 272.518 362.433 285.737 365.193 299.617 365.193 339.282 365.193 373.798 343.145 391.625 310.666 391.828 309.563 392.201 308.959 392.755 308.502 400.271 294.075 404.521 277.681 404.521 260.289 404.521 255.134 403.516 250.287 402.814 245.307 398.789 246.656 395.368 250.428 392.727 245.272ZM353.21 179.583C353.21 179.984 352.957 180.363 352.48 180.314 352.128 180.314 352.03 180.061 351.974 179.913 352.276 179.913 352.48 179.815 352.754 179.815 351.932 179.183 352.964 179.457 353.21 179.583ZM348.989 180.166C348.736 180.44 348.511 180.721 348.307 181.023 347.809 180.567 348.736 180.138 348.989 180.166ZM342.506 182.098C341.824 182.147 341.824 182.976 341.101 182.828 341.375 182.779 341.628 182.653 341.628 182.498 339.815 182.147 341.571 180.517 342.506 182.098ZM332.145 169.377 332.145 169.377 332.145 169.377 332.145 169.377ZM333.88 169.005C333.782 169.033 333.676 169.054 333.627 169.082 333.852 169.181 334.105 169.181 334.231 169.23 333.726 169.132 335.313 169.328 335.46 169.377 334.428 168.499 336.542 169.047 336.591 169.075 336.591 169.174 336.493 169.174 336.542 169.279 337.02 169.181 337.624 169.279 338.249 169.377 338.151 169.328 338.045 169.279 337.996 169.174 338.396 169.223 338.776 169.174 339.176 169.174 339.078 169.174 337.996 169.096 337.947 169.096 337.743 169.096 336.816 169.174 336.662 168.822 336.964 168.822 337.238 168.822 337.49 168.872 337.49 168.844 337.49 168.822 337.49 168.822 337.638 168.822 337.792 168.822 337.94 168.822 337.891 168.794 337.842 168.773 337.792 168.745 339.555 168.773 342.267 168.366 343.875 169.223 343.299 169.321 340.581 169.75 339.05 169.574 339.274 169.7 339.527 169.778 339.703 169.848 339.605 169.876 339.499 169.848 339.401 169.848 340.209 169.946 341.234 170.101 342.042 170.452 341.262 170.501 340.988 170.705 340.279 170.754 340.202 170.656 340.202 170.607 340.279 170.55 339.928 170.501 339.352 170.452 338.994 170.452 338.994 170.248 339.345 170.305 339.345 170.15 339.169 170.15 338.944 170.002 338.818 169.897 337.659 170.15 334.266 171.379 334.168 170.122 334.744 170.122 335.25 170.171 335.805 170.15 335.601 170.101 333.866 170.15 333.866 169.897 333.866 169.897 334.849 169.75 335.397 169.672 334.744 169.7 333.487 169.82 333.135 169.546 333.185 169.546 333.234 169.546 333.339 169.546 332.939 169.497 332.637 169.398 332.735 169.244 332.482 169.244 332.258 169.146 332.033 169.019 332.728 168.9 333.276 168.879 333.88 169.005ZM237.777 179.211C237.981 179.063 238.606 179.063 239.435 179.063 238.985 179.134 237.553 179.359 237.777 179.211ZM248.763 183.51C248.84 183.411 248.91 183.334 248.988 183.257 249.613 182.955 250.217 182.632 250.926 182.807 250.449 183.081 249.29 183.482 248.763 183.51ZM230.367 238.157C230.29 238.81 229.889 239.14 229.159 239.084 228.428 238.908 230.163 238.311 230.367 238.157ZM228.077 226.665C228.379 226.714 228.379 227.017 228.379 227.192 227.902 227.22 227.501 227.094 227.276 227.045 227.473 226.869 227.902 226.665 228.077 226.665ZM226.469 230.114C226.616 229.861 226.82 230.866 226.693 231.097 226.216 232.172 226.419 230.262 226.469 230.114ZM216.79 237.475C216.916 237.075 217.141 236.899 217.492 236.794 217.668 236.394 217.639 236.063 217.92 236.344 217.12 238.557 216.993 237.026 216.79 237.475ZM220.786 246.199C221.313 246.326 221.791 246.902 221.994 247.105 221.994 247.056 221.994 247.007 221.966 246.902 222.191 247.154 222.191 247.407 222.114 247.681 219.1 247.836 220.407 246.129 220.786 246.199ZM222.17 242.006C223.076 239.87 222.395 236.45 219.206 236.07 218.377 233.282 218.075 236.801 215.532 236.471 218.124 233.177 220.084 232.678 222.922 235.438 223.828 236.316 225.914 239.309 225.815 240.137 227.22 240.615 226.195 241.367 226.869 242.301 225.359 244.268 223.778 242.231 222.17 242.006ZM230.788 247.983C230.69 246.951 229.131 249.367 228.78 249.269 228.751 249.269 226.49 245.174 225.534 247.787 223.048 246.326 227.923 245.925 228.197 246.08 228.225 245.574 228.295 240.924 229.482 242.736 230.009 243.614 230.866 242.94 231.617 243.066 233.198 243.319 233.022 244.9 233.605 245.981 233.781 246.635 234.209 248.145 234.209 248.039 234.111 248.039 230.788 248.039 230.788 247.983ZM235.867 249.416C236.218 248.285 238.002 249.817 238.03 250.343 237.475 251.13 235.495 250.547 235.867 249.416ZM374.633 210.433C374.662 211.009 372.547 212.294 372.245 210.988 372.849 210.756 373.924 210.433 374.633 210.433ZM364.147 210.025C363.416 210.377 361.808 209.801 361.204 209.499 362.166 209.4 363.318 209.723 364.147 210.025ZM349.143 204.399C349.094 204.8 349.045 206.31 348.996 206.31 348.42 206.261 345.652 204.75 345.603 204.195 346.046 203.992 348.539 204.245 349.143 204.399ZM340.743 197.129C340.792 197.333 340.841 197.53 340.995 197.579 340.918 198.056 340.897 198.913 340.743 199.138 340.265 199.04 340.04 197.832 339.759 197.558 340.117 197.459 340.44 197.361 340.743 197.129ZM340.265 200.705C340.237 200.353 339.787 200.15 339.738 199.777 343.208 199.244 340.743 204.399 340.265 200.705ZM333.48 200.95C333.529 201.477 332.524 200.747 332.496 200.697 333.03 200.297 333.332 200.374 333.48 200.95ZM324.355 177.876C324.053 178.101 323.73 178.277 323.351 178.403 323.78 179.183 324.58 179.33 325.838 178.783 325.985 179.436 324.58 180.012 324.433 180.363 326.013 180.791 328.528 182.421 328.605 184.036 328.879 183.987 328.935 183.938 329.132 183.889 330.059 183.439 330.059 184.465 329.083 185.596 329.336 185.645 329.638 185.694 329.911 185.8 329.961 186.151 322.747 186.755 321.918 186.706 322.445 185.849 324.756 185.476 324.756 185.02 324.426 185.322 322.164 184.922 322.164 184.746 322.164 184.219 322.972 184.093 322.972 183.109 323.653 183.159 324.833 183.159 324.833 182.302 324.208 182.302 323.653 182.175 324.152 181.599 323.899 181.571 322.164 181.803 322.192 181.346 322.192 180.419 323.295 180.841 321.89 180.166 321.686 180.342 321.841 180.44 321.89 180.546 321.792 180.546 321.686 180.546 321.588 180.546 321.588 179.562 321.412 179.794 321.44 178.986 320.865 178.839 320.563 178.733 320.563 178.459 320.612 178.459 321.644 178.761 321.644 178.607 320.914 178.305 324.377 176.542 324.355 177.876ZM322.473 182.273C322.473 182.147 322.501 182 322.775 181.943 322.824 181.943 322.923 181.943 322.979 181.943 322.979 182.042 322.979 182.147 322.979 182.295 322.873 182.302 322.719 182.302 322.473 182.273ZM321.012 177.722C320.963 177.975 320.661 178.249 320.232 178.249 319.375 178.178 320.914 177.722 321.012 177.722ZM316.741 182C316.741 181.473 318.125 181.62 318.399 181.473 317.619 180.616 319.734 180.721 320.106 180.77 322.522 180.918 320.682 182 320.682 182.302 320.633 184.261 319.298 184.915 317.163 184.739 314.922 184.563 317.261 183.18 317.437 182.625 317.219 182.4 316.987 182.203 316.741 182ZM256.405 171.639C256.328 171.688 256.229 171.787 256.131 171.843 256.531 171.843 255.225 171.892 255.576 171.695 255.906 171.695 256.279 171.695 256.405 171.639ZM255.429 172.622C254.775 172.096 257.388 171.941 256.784 172.672 256.208 172.672 254.192 172.798 255.429 172.622ZM257.768 172.77C257.543 172.917 257.318 172.974 257.037 172.974 256.911 172.974 255.604 172.924 255.604 172.924 256.279 172.77 257.009 172.826 257.768 172.77ZM250.498 172.468C250.575 172.468 250.723 172.419 250.828 172.37 250.477 172.37 250.449 172.37 250.652 172.243 251.355 172.166 253.441 171.941 253.968 172.468 253.869 172.468 253.715 172.517 253.616 172.566 253.841 172.791 253.041 172.917 252.134 172.946 251.91 172.995 251.657 172.995 251.355 173.023 251.502 172.995 251.706 172.974 251.91 172.946 251.158 172.946 250.378 172.847 250.224 172.672 250.624 172.721 251.004 172.622 251.306 172.419 250.751 172.468 250.547 172.524 250.498 172.468ZM249.543 173.304C249.395 173.353 249.163 173.402 249.016 173.451 248.742 173.451 248.615 173.198 248.812 173.072 249.472 173.051 249.17 173.248 249.543 173.304ZM245.244 173.023C245.771 172.995 246.227 172.924 246.649 172.924 246.522 172.924 246.396 172.953 246.297 172.953 246.347 172.981 246.396 173.03 246.424 173.1 245.019 173.248 244.844 173.276 245.897 173.227 245.595 173.43 244.668 173.578 244.162 173.578 243.558 173.55 244.415 173.198 245.244 173.023ZM242.785 173.831C242.561 173.957 242.308 174.055 242.055 174.006 241.957 174.006 241.83 173.957 242.006 173.88 242.252 173.852 242.533 173.852 242.785 173.831ZM241.676 173.55C242.006 173.648 241.879 173.753 241.275 173.824 241.051 174.175 240.699 174.301 240.222 174.224 240.594 173.704 241.1 173.5 241.676 173.55ZM240.924 174.884 240.924 174.835C240.777 174.835 240.545 174.933 240.446 174.983 239.941 175.081 239.463 175.13 238.985 175.081 239.21 174.73 239.512 174.575 239.863 174.631 239.786 174.582 239.737 174.582 239.688 174.582 239.941 174.378 240.137 174.378 240.439 174.435 240.39 174.385 240.341 174.357 240.292 174.357 240.545 174.259 240.77 174.21 241.022 174.21 240.945 174.21 240.924 174.161 241.022 174.112 242.202 173.985 243.46 174.814 244.745 174.336 244.492 174.385 244.394 174.336 244.317 174.308 244.541 174.308 244.717 174.259 244.844 174.133 243.811 174.105 246.024 173.683 246.248 173.683 245.068 174.238 247.506 174.112 247.302 174.21 245.525 175.285 242.757 174.484 240.924 174.884ZM248.011 174.329C247.913 174.631 247.681 174.73 247.33 174.68 247.105 174.68 247.077 174.68 246.852 174.68 247.281 174.484 247.583 174.435 248.011 174.329ZM245.946 178.277C245.293 178.424 248.559 177.244 248.032 178.424 247.562 178.558 244.239 178.558 245.946 178.277ZM249.669 175.762C250.02 175.713 250.954 175.411 250.273 175.91 250.371 175.938 250.673 175.959 250.8 175.959 249.817 176.535 247.407 177.392 246.473 176.106 247.154 175.657 247.808 176.156 248.559 175.657 246.6 175.608 250.947 175.383 251.123 175.278 250.652 175.516 250.175 175.664 249.669 175.762ZM250.097 174.484C250.449 174.231 251.151 174.182 251.481 174.083 251.179 173.957 250.73 173.985 250.252 174.006 250.252 174.034 250.28 174.034 250.28 174.034 250.28 174.034 250.252 174.034 250.231 174.006 249.704 174.055 249.177 174.133 248.798 174.154 248.826 174.105 248.847 174.076 248.896 174.027 248.594 174.076 248.545 174.027 248.447 173.978L248.749 173.774C248.749 173.774 248.749 173.774 248.749 173.802 248.749 173.472 249.908 173.929 250.231 174.006L250.259 174.006C250.182 173.957 250.112 173.908 250.083 173.88 250.589 173.529 251.067 174.027 251.643 173.676 251.214 173.676 250.891 173.725 251.018 173.578 251.221 173.529 253.357 173.578 253.357 173.578 253.343 174.983 250.652 174.133 250.097 174.484ZM253.012 174.378C253.16 174.301 253.539 174.231 253.588 174.231 254.115 173.929 254.67 173.88 255.246 174.055 256.005 174.484 253.041 174.378 253.012 174.378ZM258.646 174.308C258.168 174.336 255 174.28 256.686 173.957 256.588 173.43 256.258 173.353 255.759 173.627 255.309 173.627 254.881 173.529 254.473 173.325 254.874 173.072 258.87 173.121 259.025 173.529 258.674 173.578 258.344 173.578 257.992 173.578 257.74 173.852 258.618 173.676 258.821 173.781 258.294 173.929 266.084 173.255 266.161 173.732 265.986 173.732 265.81 173.781 265.656 173.88 265.831 173.88 266.007 173.88 266.007 173.88 264.047 175.109 260.381 173.353 258.646 174.308ZM264.574 175.263C264.497 175.263 263.492 175.039 263.745 174.814 264.553 174.238 266.463 174.765 267.313 174.961 266.639 175.285 265.227 175.235 264.574 175.263ZM268.95 172.468C267.292 174.076 263.366 172.672 260.907 172.946 261.413 172.798 261.912 172.721 262.439 172.672 261.055 172.096 264.174 172.419 264.602 172.37 263.949 171.843 262.769 171.941 262.087 172.117 262.087 172.166 262.165 172.194 262.137 172.264 261.61 172.264 260.226 172.187 259.545 172.313 259.446 172.313 259.32 172.363 259.116 172.363 259.144 172.363 259.194 172.313 259.215 172.313 259.067 172.313 258.885 172.264 258.786 172.11 259.517 171.962 260.247 171.885 260.971 171.885 260.641 171.857 259.566 171.758 258.885 171.758 258.934 171.758 259.011 171.758 259.088 171.709 258.259 171.758 257.782 171.758 258.133 171.506 258.561 171.456 259.011 171.456 259.418 171.456 259.144 171.506 258.892 171.456 258.667 171.309 258.941 171.133 259.348 171.183 259.72 171.183 259.671 171.154 259.594 171.133 259.545 171.084 260.022 171.007 260.528 170.986 261.006 170.958 260.802 170.93 260.402 170.93 260.556 170.831 261.385 170.831 263.071 171.534 263.647 171.26 264.153 171.26 264.153 171.309 263.724 171.562 264.553 171.056 264.778 172.117 266.14 171.183 266.218 171.133 265.515 170.88 265.234 170.831 265.887 170.831 266.042 170.782 265.663 170.656 264.981 170.656 264.455 170.557 264.356 170.403 264.609 170.354 264.883 170.305 265.108 170.305 264.757 170.305 264.377 170.305 264.026 170.305 264.63 170.101 265.185 170.101 265.859 170.052 265.234 170.002 264.602 170.255 263.949 170.15 264.328 170.073 264.504 170.052 264.827 170.002 264.272 170.052 263.724 170.101 263.169 170.101 266.211 168.97 274.78 168.239 277.821 169.321 276.241 169.722 280.413 169.068 280.238 169.469 280.111 169.743 277.625 169.743 277.421 169.799 277.547 169.848 278.25 169.771 278.65 169.771 276.466 170.347 274.077 170.298 271.865 170.873 272.069 170.873 272.265 170.873 272.441 170.873 272.314 171.021 272.09 171.021 271.689 171.021 271.893 171.07 272.118 171.07 272.139 171.197 271.106 171.4 270.58 171.646 269.575 171.723 269.371 172.229 268.472 172.025 268.065 172.349 268.346 172.419 269.048 172.37 268.95 172.468ZM265.733 194.868C264.904 195.444 263.745 194.615 263.12 194.137 264.574 193.94 265.08 194.516 265.733 194.868ZM261.336 197.811C261.385 197.663 261.54 197.607 261.638 197.558 262.144 198.162 262.797 198.366 263.626 198.113 263.092 199.215 261.132 198.113 261.336 197.811ZM264.398 198.794C264.848 198.267 265.382 197.916 266.007 197.663 266.007 197.811 266.211 197.867 266.154 198.014 265.979 198.394 265.227 198.541 266.253 198.541 265.986 199.194 264.174 199.244 264.398 198.794ZM270.06 197.361C270.088 197.333 267.924 198.492 268.023 198.239 268.226 197.986 268.472 197.79 268.774 197.712 268.248 197.712 263.443 197.333 263.471 197.312 263.696 196.806 264.455 196.961 264.679 196.483 264.553 196.483 264.405 196.434 264.405 196.336 266.316 195.76 267.777 192.894 269.786 192.894 270.411 192.894 267.953 194.903 267.903 195.008 268.381 194.706 268.831 194.657 269.336 194.91 269.083 194.959 268.936 195.134 268.908 195.359 269.182 195.359 269.435 195.359 269.737 195.359 269.737 195.408 269.659 195.563 269.659 195.563 269.884 195.514 270.088 195.465 270.263 195.415 270.741 195.514 271.317 195.514 271.619 195.415 271.493 195.717 271.317 195.991 271.113 196.497 271.212 196.448 271.493 196.399 271.668 196.399 271.289 197.129 271.394 196.75 271.113 197.48 271.591 197.48 271.465 197.403 271.816 197.256 270.889 199.672 270.959 198.288 270.06 197.361ZM296.8 175.516C296.372 176.802 294.812 174.737 294.56 175.516 294.939 175.72 297.074 176.043 296.821 176.949 296.674 177.476 294.082 176.549 293.731 176.422 293.604 176.851 294.033 176.851 293.253 176.9 293.127 177.329 295.515 177.3 296.042 177.378 293.801 178.157 291.314 178.586 288.954 178.537 287.423 178.986 286.517 180.019 284.754 179.97 284.782 179.871 284.803 179.766 284.831 179.717 283.195 180.019 281.263 183.313 280.406 183.264 279.851 183.215 275.855 181.402 277.316 180.623 277.014 180.244 275.855 180.096 276.536 179.19 276.438 179.141 276.311 179.141 276.185 179.19 276.438 178.333 277.842 178.157 278.369 177.532 277.863 177.434 276.662 177.385 276.712 177.055 277.189 176.928 277.87 177.56 278.194 177.027 278.046 177.027 276.887 176.345 276.459 176.401 276.964 176.149 276.985 175.952 276.487 175.875 277.189 174.09 273.368 174.09 272.336 174.315 272.364 174.343 272.413 174.364 272.434 174.393 272.104 174.491 271.781 174.421 271.429 174.245 271.577 174.196 271.682 174.168 271.76 174.098 271.458 173.95 271.155 173.894 270.804 173.999 271.205 173.423 272.49 173.999 272.968 173.472 272.743 173.472 270.432 173.676 270.58 173.325 271.029 172.398 273.445 173.297 274 172.243 273.67 172.292 273.347 172.243 273.017 172.145 273.572 171.042 278.875 170.81 279.655 170.761 279.858 170.361 280.434 170.459 280.863 170.614 280.835 170.564 280.785 170.515 280.814 170.466 281.066 170.038 283.174 170.466 283.63 170.466 283.3 170.466 283.026 170.417 282.752 170.192 283.005 170.094 283.279 170.045 283.56 170.045 283.483 169.995 283.335 169.995 283.286 169.946 288.512 168.738 294.349 169.068 299.729 169.167 299.35 169.546 298.725 169.693 298.022 169.82 298.598 169.743 299.055 169.722 299.027 169.792 298.978 169.841 296.892 170.494 296.765 170.6 297.341 170.501 307.526 169.265 307.421 169.42 307.118 169.946 304.955 170.045 303.824 170.101 303.522 170.628 299.399 171.583 298.669 171.962 299.294 171.864 299.954 171.913 300.579 172.089 300.432 172.117 300.2 172.166 300.052 172.166 300.453 172.215 300.804 172.37 301.134 172.517 300.832 173.219 298.697 172.243 298.395 172.995 298.317 173.142 299.68 173.044 299.448 173.599 299.245 174.126 298.542 173.599 298.395 174.048 298.725 174.273 299.076 174.322 299.448 174.273 299.195 174.498 298.591 174.652 298.043 174.652 298.015 174.751 298.121 174.8 298.268 174.856 297.566 175.685 296.259 175.06 295.452 175.081 295.971 175.088 296.4 175.263 296.8 175.516ZM298.163 177.827C298.591 177.827 299.343 177.827 299.722 177.778 299.771 177.827 298.514 177.251 298.591 177.097 298.992 177.048 299.645 176.844 300.073 176.844 299.673 177.771 300.6 177.399 300.93 177.293 301.232 177.743 301.787 177.343 302.216 177.595 302.265 177.216 305.461 177.595 305.861 177.595 305.004 177.848 306.262 178.424 306.037 178.825 302.967 180.18 301.359 178.923 298.493 178.677 298.591 178.628 298.718 178.579 298.795 178.579 298.943 178.326 299.125 178.228 299.322 178.052 298.865 177.876 298.261 178.052 298.163 177.827ZM384.256 282.148C383.905 283.707 382.472 284.663 382.472 286.37 382.423 288.133 382.873 289.86 382.852 291.595 382.823 293.429 385.387 295.388 384.586 297.074 382.423 301.675 386.497 306.276 381.194 309.591 379.333 310.722 376.923 311.754 376.516 314.192 373.123 314.873 376.263 318.919 376.165 320.626 376.066 324.447 375.287 323.667 372.87 325.627 370.335 327.79 372.772 329.652 370.609 332.215 368.649 334.575 367.567 337.42 365.755 339.935 364.975 340.967 361.154 342.351 361.028 343.18 358.97 343.384 357.284 342.878 355.268 343.96 353.358 344.943 351.194 343.559 350.541 344.009 350.618 337.223 345.259 332.166 344.486 325.156 344.135 321.911 344.037 320.633 342.576 317.69 341.016 314.599 339.682 311.129 340.286 307.582 340.764 305.046 342.822 303.361 343.355 300.867 343.931 298.381 342.829 294.686 342.175 292.319 341.494 289.727 341.297 286.636 339.661 284.529 338.024 282.471 335.088 279.676 336.17 276.683 337.828 272.083 338.635 267.355 331.998 267.482 329.94 267.51 330.185 263.513 327.825 263.563 324.58 263.612 321.89 267.355 319.2 267.433 318.069 267.461 317.163 266.428 316.032 266.478 314.599 266.506 313.616 267.285 312.358 267.735 309.619 268.662 307.582 265.972 305.847 264.188 303.557 261.849 303.108 258.681 300.944 256.342 299.736 255.007 298.556 253.652 297.601 252.071 297.65 252.071 297.699 252.071 297.748 252.071 297.777 250.21 296.589 248.398 297.524 246.965 298.479 245.483 299.104 243.474 299.181 241.711 299.28 239.175 297.524 235.579 298.83 233.268 299.814 231.561 300.488 229.777 301.317 227.965 302.349 225.703 303.354 222.858 305.84 221.98 307.224 221.453 308.853 220.07 309.31 218.637 309.816 217.078 309.457 215.293 310.441 213.91 311.874 211.922 313.581 210.236 315.042 208.206 315.014 208.206 314.992 208.206 314.943 208.206 316.58 205.994 319.193 208.508 322.136 206.745 324.496 205.411 327.418 203.978 330.178 203.83 331.991 203.781 333.697 203.83 335.58 203.781 336.458 203.732 337.589 202.123 338.418 203.331 338.867 203.907 339.345 203.957 339.879 203.458 339.78 205.038 339.099 206.45 339.071 208.234 339.043 211.451 342.14 210.398 343.974 210.974 345.68 211.529 352.346 218.819 352.22 213.235 352.121 208.431 359.23 212.554 361.021 213.186 363.535 214.064 365.446 214.415 367.933 213.488 369.794 212.807 371.48 214.015 373.411 213.488 374.542 216.326 374.465 217.106 373.791 220.028 372.688 219.88 371.627 217.134 370.7 216.108 370.848 219.15 373.741 222.795 375.174 225.436 376.101 227.248 376.305 229.11 377.338 230.838 378.546 232.875 378.019 235.691 379.452 237.377 381.011 239.084 381.615 239.99 382.114 242.329 382.795 245.525 387.874 247.555 388.576 250.526 389.559 254.825 390.936 253.771 394.455 253.139 396.464 252.738 398.325 251.678 400.215 251.081 402.273 255.984 396.822 265.557 394.083 269.631 390.817 274.38 385.619 276.065 384.256 282.148Z" stroke="#D6E7E5" stroke-width="1.32898" fill="none" transform="matrix(1.00086 0 -0 1 156 31.6368)"/><path d="M245.469 191.981 245.469 191.981C245.293 191.903 244.815 191.932 244.766 191.854 244.991 191.953 245.272 192.002 245.469 191.981Z" stroke="#D6E7E5" stroke-width="1.32898" fill="none" transform="matrix(1.00086 0 -0 1 156 31.6368)"/><path d="M402.308 239.639C402.659 241.451 402.687 243.361 402.912 245.272 403.116 245.195 403.291 245.068 403.467 244.998 403.235 243.186 402.659 241.451 402.308 239.639Z" stroke="#D6E7E5" stroke-width="1.32898" fill="none" transform="matrix(1.00086 0 -0 1 156 31.6368)"/><path d="M365.783 178.754C370.609 182.674 374.83 187.303 378.932 192.03 376.319 189.017 373.678 186.073 370.784 183.355 369.379 182.049 367.645 180.412 365.783 178.754Z" stroke="#D6E7E5" stroke-width="1.32898" fill="none" transform="matrix(1.00086 0 -0 1 156 31.6368)"/><path d="M396.022 219.704C396.373 220.533 396.577 221.439 396.949 222.317 397.202 222.619 397.553 222.844 397.728 223.125 397.258 221.917 396.527 220.885 396.022 219.704Z" stroke="#D6E7E5" stroke-width="1.32898" fill="none" transform="matrix(1.00086 0 -0 1 156 31.6368)"/><path d="M389.588 206.408C388.106 203.943 386.293 201.681 384.636 199.342 386.546 202.032 388.253 204.898 389.939 207.736 389.686 207.335 389.538 206.907 389.314 206.478 389.335 206.436 389.461 206.408 389.588 206.408Z" stroke="#D6E7E5" stroke-width="1.32898" fill="none" transform="matrix(1.00086 0 -0 1 156 31.6368)"/></g></g></g></svg>