<?xml version="1.0" encoding="UTF-8" standalone="no"?>
<svg
   xmlns:dc="http://purl.org/dc/elements/1.1/"
   xmlns:cc="http://creativecommons.org/ns#"
   xmlns:rdf="http://www.w3.org/1999/02/22-rdf-syntax-ns#"
   xmlns:svg="http://www.w3.org/2000/svg"
   xmlns="http://www.w3.org/2000/svg"
   xmlns:sodipodi="http://sodipodi.sourceforge.net/DTD/sodipodi-0.dtd"
   xmlns:inkscape="http://www.inkscape.org/namespaces/inkscape"
   viewBox="0 0 18 19.945946"
   version="1.1"
   x="0px"
   y="0px"
   id="svg14"
   sodipodi:docname="brain-marker.svg"
   width="18"
   height="19.945946"
   inkscape:version="1.0.1 (3bc2e813f5, 2020-09-07)">
  <metadata
     id="metadata20">
    <rdf:RDF>
      <cc:Work
         rdf:about="">
        <dc:format>image/svg+xml</dc:format>
        <dc:type
           rdf:resource="http://purl.org/dc/dcmitype/StillImage" />
        <dc:title>Brain 03</dc:title>
      </cc:Work>
    </rdf:RDF>
  </metadata>
  <defs
     id="defs18" />
  <sodipodi:namedview
     pagecolor="#ffffff"
     bordercolor="#666666"
     borderopacity="1"
     objecttolerance="10"
     gridtolerance="10"
     guidetolerance="10"
     inkscape:pageopacity="0"
     inkscape:pageshadow="2"
     inkscape:window-width="2488"
     inkscape:window-height="1376"
     id="namedview16"
     showgrid="false"
     inkscape:zoom="42.426407"
     inkscape:cx="2.2741936"
     inkscape:cy="8.5979027"
     inkscape:window-x="72"
     inkscape:window-y="27"
     inkscape:window-maximized="1"
     inkscape:current-layer="svg14" />
  <title
     id="title2">Brain 03</title>
  <desc
     id="desc4">Created with Sketch.</desc>
  <g
     id="g859"
     transform="scale(0.48648649)">
    <g
       stroke="none"
       stroke-width="1"
       fill="none"
       fill-rule="evenodd"
       id="g8"
       style="fill:#d83657;fill-opacity:1;stroke:none;stroke-opacity:1"
       transform="translate(-5.5,-3)">
      <path
         d="M 24,41.663079 C 23.004633,43.076552 21.360158,44 19.5,44 16.462434,44 14,41.537566 14,38.5 14,38.015698 14.0626,37.546017 14.180138,37.098604 11.765592,37.32347 9.216905,36.071843 7.8839746,33.76314 6.4886827,31.346423 6.7981027,28.419321 8.4219204,26.465129 6.6790039,25.51459 5.5,23.403525 5.5,21 5.5,18.794992 6.4922896,16.836127 8.0019445,15.793659 8.074799,11.931574 10.18739,8.6771379 13.068074,8.0932191 13.505187,5.209777 15.994533,3 19,3 21.086971,3 22.925079,4.0655093 24,5.6822049 25.074921,4.0655093 26.913029,3 29,3 c 3.005467,0 5.494813,2.209777 5.931926,5.0932191 2.880684,0.5839188 4.993275,3.8383549 5.066129,7.7004399 C 41.50771,16.836127 42.5,18.794992 42.5,21 c 0,2.356251 -1.133082,4.431434 -2.819738,5.407701 1.613199,1.944111 1.855701,4.896035 0.435763,7.355439 -1.33293,2.308703 -3.881617,3.56033 -6.296163,3.335464 C 33.937404,37.546017 34,38.015698 34,38.5 34,41.537566 31.537566,44 28.5,44 26.639842,44 24.995367,43.076552 24,41.663079 Z M 25,9 v 6.527787 C 26.061513,14.577707 27.463291,14 29,14 c 0.552285,0 1,0.447715 1,1 0,0.552285 -0.447715,1 -1,1 -2.209139,0 -4,1.790861 -4,4 V 38.500007 C 25,40.432997 26.567003,42 28.5,42 30.432997,42 32,40.432997 32,38.5 32,36.567003 30.432997,35 28.5,35 c -0.552285,0 -1,-0.447715 -1,-1 0,-0.552285 0.447715,-1 1,-1 1.491485,0 2.84431,0.593678 3.835054,1.557615 0.05621,0.02006 0.111415,0.04545 0.164946,0.07636 1.916493,1.106487 4.644496,0.276005 5.883975,-1.870835 C 39.588128,30.677485 39.105334,28.162903 37.384115,27 h -0.214242 c -1.380712,0 -2.5,1.119288 -2.5,2.5 0,0.552285 -0.447715,1 -1,1 -0.552285,0 -1,-0.447715 -1,-1 0,-0.345852 0.03902,-0.682591 0.112887,-1.006056 -1.470134,-0.08265 -2.864562,-0.885521 -3.648879,-2.243998 -0.276143,-0.478293 -0.112268,-1.089883 0.366025,-1.366026 0.478293,-0.276142 1.089883,-0.112267 1.366025,0.366026 0.633348,1.09699 1.983913,1.541984 3.135901,1.054194 C 34.815047,25.497961 35.934307,25 37.169873,25 H 37.5 c 1.601639,0 3,-1.747951 3,-4 0,-2.252049 -1.398361,-4 -3,-4 H 37 c -2.209139,0 -4,1.790861 -4,4 0,0.552285 -0.447715,1 -1,1 -0.552285,0 -1,-0.447715 -1,-1 0,-3.313709 2.686292,-6 6,-6 h 0.943897 c -0.313396,-2.759836 -1.89855,-4.825091 -3.710847,-4.989439 -1.798205,0.910645 -3.857726,0.711316 -4.697152,-0.7426118 -0.276142,-0.4782926 -0.112267,-1.089883 0.366026,-1.3660254 0.478292,-0.2761424 1.089883,-0.1122672 1.366025,0.3660254 0.182693,0.3164337 0.882538,0.4169396 1.685915,0.1225825 C 32.66036,6.4706574 31.001925,5 29,5 26.790861,5 25,6.790861 25,9 Z M 23,38.5 V 30.917042 C 20.162287,30.440963 18,27.972996 18,25 c 0,-0.552285 0.447715,-1 1,-1 0.552285,0 1,0.447715 1,1 0,1.863839 1.274773,3.42994 3,3.873982 V 9 c 0,-2.209139 -1.790861,-4 -4,-4 -2.001925,0 -3.66036,1.4706574 -3.953864,3.3905317 0.803377,0.2943571 1.503222,0.1938512 1.685915,-0.1225825 0.276142,-0.4782926 0.887733,-0.6421678 1.366025,-0.3660254 0.478293,0.2761424 0.642168,0.8877328 0.366026,1.3660254 C 17.624676,10.721877 15.565155,10.921206 13.76695,10.010561 11.954653,10.174909 10.369499,12.240164 10.056103,15 H 11 c 0.820174,0 1.601912,0.164565 2.313995,0.462476 1.024056,0.181594 2.070007,-0.29275 2.601118,-1.212661 0.276142,-0.478292 0.887733,-0.642167 1.366025,-0.366025 0.478293,0.276142 0.642168,0.887733 0.366026,1.366025 -0.490921,0.850301 -1.22603,1.489004 -2.074879,1.864872 C 16.462705,18.161519 17,19.518014 17,21 c 0,0.552285 -0.447715,1 -1,1 -0.552285,0 -1,-0.447715 -1,-1 0,-2.209139 -1.790861,-4 -4,-4 -2.5,0 -3.5,1.747951 -3.5,4 0,1.533149 0.6480855,2.832668 1.5671904,3.506104 C 9.4937261,24.81863 10,25 10.830127,25 c 2.485281,0 4.5,2.014719 4.5,4.5 0,0.552285 -0.447715,1 -1,1 -0.552285,0 -1,-0.447715 -1,-1 0,-1.380712 -1.163285,-2.50095 -2.543997,-2.50095 -1.7776932,1.188451 -2.3478363,3.724198 -1.1701046,5.76409 1.2394786,2.14684 3.9674816,2.977322 5.8839746,1.870835 0.05353,-0.03091 1.001218,-0.778001 1.48991,-1.029094 C 17.742444,33.218224 18.595737,33 19.5,33 c 0.552285,0 1,0.447715 1,1 0,0.552285 -0.447715,1 -1,1 -1.932997,0 -3.5,1.567003 -3.5,3.5 0,1.932997 1.567003,3.5 3.5,3.5 1.932997,0 3.5,-1.567003 3.5,-3.5 z"
         fill="#000000"
         fill-rule="nonzero"
         id="path6"
         style="fill:#d83657;fill-opacity:1;stroke:none;stroke-opacity:1" />
    </g>
    <path
       style="fill:#fe97a0;fill-opacity:1;stroke:none;stroke-width:0.125984;stroke-opacity:1"
       d="m 13.189859,38.868225 c -1.173747,-0.29904 -2.172753,-1.266876 -2.516834,-2.438306 -0.151186,-0.514717 -0.139166,-1.417638 0.02599,-1.952353 0.424945,-1.375813 1.848213,-2.446451 3.258574,-2.451229 0.414159,-0.0014 0.776003,-0.2239 0.950568,-0.584504 0.235475,-0.486428 0.101621,-0.963536 -0.368189,-1.312362 -0.420707,-0.312367 -2.09197,-0.07301 -3.038176,0.435122 -0.202653,0.108829 -0.676892,0.418558 -1.053864,0.688288 -0.91494,0.654652 -1.371784,0.808084 -2.381262,0.79975 -0.596434,-0.0049 -0.830135,-0.03794 -1.25187,-0.176846 -1.61938,-0.533382 -2.8141139,-1.844578 -3.1837887,-3.494142 -0.1058262,-0.472217 -0.086411,-1.48521 0.037642,-1.963944 0.2163932,-0.835089 0.7354685,-1.674729 1.3219127,-2.138288 0.312297,-0.246855 0.356679,-0.262274 0.639185,-0.222062 0.46024,0.06551 1.094392,0.388634 1.438954,0.733196 0.39317,0.39317 0.62857,0.908782 0.708377,1.5516 0.03464,0.279054 0.113974,0.594006 0.176289,0.699894 0.381878,0.648905 1.456631,0.62194 1.772868,-0.04448 C 9.973907,26.475629 9.811455,25.363754 9.35043,24.425352 8.822068,23.349899 7.684677,22.431783 6.5,22.124449 6.261667,22.062619 5.698912,21.987737 5.249433,21.958043 4.549481,21.911803 4.3713847,21.875597 4.0084322,21.705751 3.2123241,21.333207 2.5796812,20.501655 2.2227909,19.358685 2.0889898,18.930177 2.0672918,18.725234 2.0710391,17.925352 c 0.00668,-1.425491 0.3253784,-2.330493 1.06804,-3.032871 1.4344709,-1.356663 4.1090419,-1.054838 5.4332839,0.613145 0.54063,0.680963 0.796834,1.36809 0.895132,2.400699 0.04986,0.523766 0.222694,0.829187 0.567167,1.002257 0.463755,0.232999 1.027487,0.08581 1.314009,-0.343089 C 11.4756,18.375492 11.5,18.249893 11.5,17.786518 c 0,-1.054477 -0.355242,-2.186961 -0.977753,-3.117001 -0.199459,-0.297994 -0.33805,-0.550008 -0.307981,-0.560032 0.188494,-0.06283 0.951111,-0.622526 1.234881,-0.906296 0.53625,-0.53625 0.850853,-1.070532 0.850853,-1.44498 0,-0.567224 -0.440359,-1.025947 -0.983071,-1.024066 -0.439148,0.0015 -0.678723,0.148565 -1.038586,0.637455 -0.466489,0.633746 -1.042633,0.977596 -1.813021,1.082033 -0.267205,0.03622 -0.457643,0.0062 -0.97592,-0.153911 C 6.720152,12.06209 6.034628,11.958685 5.228509,11.958685 H 4.633333 v -0.191452 c 0,-0.274404 0.287715,-1.367714 0.4918,-1.868827 C 5.5353,8.891277 6.417503,7.803277 7.14214,7.410879 7.32612,7.311249 7.64689,7.185398 7.854962,7.131202 8.217288,7.036832 8.248068,7.039172 8.583305,7.186652 9.468397,7.57603 10.703303,7.678454 11.504896,7.42897 12.056558,7.257274 12.569092,6.8950519 12.861859,6.4699674 13.057112,6.1864687 13.099955,6.0642702 13.099751,5.7914416 13.099284,5.1948958 12.683287,4.7594302 12.113356,4.7589347 11.763193,4.758628 11.533827,4.8712603 11.250956,5.1824175 10.914757,5.5522338 10.469367,5.62383 9.791012,5.4171024 9.585385,5.3544384 9.583012,5.3488994 9.643446,5.0727162 9.677226,4.9183327 9.804266,4.5820188 9.925753,4.3253522 10.48185,3.1504746 11.511567,2.3548155 12.789357,2.1126556 c 2.01809,-0.3824579 3.946526,0.8420572 4.560107,2.8955696 0.105895,0.3544076 0.116204,1.1664476 0.134635,10.6055968 l 0.01996,10.221803 -0.152028,-0.04277 c -0.5094,-0.143301 -1.169177,-0.54808 -1.618252,-0.992812 -0.746675,-0.739453 -1.085643,-1.505818 -1.200366,-2.713876 -0.02396,-0.25231 -0.09726,-0.530535 -0.17227,-0.653876 -0.13917,-0.228843 -0.581624,-0.470678 -0.861143,-0.470678 -0.279695,0 -0.721881,0.242221 -0.869929,0.47653 -0.126048,0.199488 -0.136426,0.293734 -0.108719,0.987209 0.05994,1.500129 0.689455,2.858828 1.827457,3.94423 0.813115,0.775531 1.773546,1.276662 2.97244,1.550951 l 0.187915,0.04299 -0.02501,4.04758 c -0.02264,3.66517 -0.03627,4.082222 -0.144274,4.414247 -0.364612,1.120937 -1.165417,1.96984 -2.209158,2.341846 -0.494111,0.176109 -1.450724,0.225903 -1.940866,0.101027 z"
       id="path851" />
    <path
       style="fill:#fe97a0;fill-opacity:1;stroke:none;stroke-width:0.125984;stroke-opacity:1"
       d="m 22.189858,38.868225 c -0.566754,-0.144394 -1.080554,-0.436454 -1.554702,-0.883741 -0.481582,-0.454301 -0.778344,-0.9369 -0.979242,-1.592465 -0.116618,-0.380544 -0.122581,-0.875058 -0.122581,-10.166667 0,-9.246417 0.0065,-9.789465 0.12143,-10.194669 0.483474,-1.704107 1.83173,-2.81295 3.640953,-2.994422 0.359897,-0.0361 0.670136,-0.105389 0.772666,-0.172569 0.273499,-0.179203 0.43112,-0.497894 0.43112,-0.871673 0,-0.449692 -0.182507,-0.737157 -0.579501,-0.912766 -0.267211,-0.1182 -0.38664,-0.130792 -0.869185,-0.09164 -1.081599,0.08776 -2.276587,0.517341 -3.050816,1.096724 -0.183333,0.137194 -0.373164,0.273258 -0.421846,0.302364 -0.07327,0.0438 -0.08369,-0.554137 -0.06052,-3.470882 0.0246,-3.0960694 0.04206,-3.5718463 0.143848,-3.9196054 0.59684,-2.0390456 2.532198,-3.2658042 4.54916,-2.88356 1.508857,0.2859506 2.730906,1.4112556 3.110286,2.8640564 l 0.09826,0.3762996 -0.209597,0.06389 C 26.530669,5.6238533 26.085358,5.552361 25.749044,5.1824175 25.466173,4.8712603 25.236807,4.7586303 24.886644,4.7589347 c -0.56993,4.933e-4 -0.985948,0.4359611 -0.986395,1.0325069 -4.8e-4,0.6405553 0.698939,1.3586884 1.594855,1.6375284 0.801593,0.249484 2.036499,0.14706 2.921591,-0.242318 0.335237,-0.147481 0.366018,-0.149824 0.728343,-0.05545 1.380565,0.359591 2.557406,1.826136 3.062175,3.815993 0.0877,0.345723 0.159454,0.710288 0.159454,0.810146 v 0.181558 L 31.45,11.977805 c -1.081023,0.04588 -1.731665,0.195252 -2.545717,0.584428 C 26.858037,13.540484 25.5,15.624558 25.5,17.786518 c 0,0.463375 0.0244,0.588974 0.151329,0.778975 0.39961,0.598179 1.295157,0.602148 1.692288,0.0075 0.09659,-0.144628 0.160329,-0.371079 0.187647,-0.666667 0.176465,-1.909374 1.157228,-3.157707 2.935403,-3.736232 0.236996,-0.07711 0.584213,-0.108876 1.201402,-0.109928 0.846642,-0.0014 0.87897,0.0039 1.309741,0.215955 0.82427,0.405787 1.540639,1.37417 1.836498,2.482565 0.142661,0.534458 0.158639,1.866724 0.02879,2.4 -0.04911,0.201667 -0.219538,0.638984 -0.378738,0.971814 -0.357949,0.748348 -0.830302,1.254351 -1.46059,1.56464 -0.394515,0.19422 -0.524425,0.221768 -1.255245,0.266192 -1.311271,0.0797 -2.117829,0.365372 -2.975867,1.053992 -0.34091,0.273598 -0.484422,0.343334 -0.830642,0.403626 -0.94283,0.164186 -1.825009,-0.207276 -2.42241,-1.020011 -0.37561,-0.510999 -0.612308,-0.665894 -1.017563,-0.665894 -0.640161,0 -1.044058,0.451363 -0.989764,1.106079 0.02546,0.307006 0.08311,0.442874 0.341656,0.805194 0.697438,0.977372 1.912982,1.715008 3.013285,1.828568 l 0.346668,0.03578 -0.0321,0.613705 c -0.02576,0.492456 -0.0093,0.66183 0.08349,0.857293 0.32164,0.677806 1.368514,0.723744 1.768676,0.07761 0.07035,-0.113596 0.154622,-0.439741 0.193279,-0.74804 0.140863,-1.123401 0.805092,-1.911667 1.83744,-2.18056 0.705951,-0.183877 0.791754,-0.160945 1.297171,0.346678 1.920857,1.929245 1.320898,5.459851 -1.180302,6.945787 -1.612133,0.957751 -3.449744,0.858468 -4.77381,-0.257921 -0.835971,-0.704851 -2.003289,-1.13882 -3.11848,-1.159345 -0.695791,-0.01281 -0.852716,0.04657 -1.140008,0.43137 -0.472984,0.63351 0.06299,1.588282 0.893173,1.591094 1.410361,0.0048 2.833628,1.075416 3.258574,2.451229 0.165157,0.534715 0.177177,1.437636 0.02599,1.952353 -0.316892,1.078864 -1.14846,1.96383 -2.196251,2.337279 -0.49411,0.176109 -1.450723,0.225903 -1.940866,0.101027 z"
       id="path853" />
  </g>
</svg>
